<?xml version="1.0" encoding="UTF-8" standalone="no"?>
<!DOCTYPE svg PUBLIC "-//W3C//DTD SVG 1.1//EN" "http://www.w3.org/Graphics/SVG/1.1/DTD/svg11.dtd">
<!-- Created with Vectornator (http://vectornator.io/) -->
<svg height="100%" stroke-miterlimit="10" style="fill-rule:nonzero;clip-rule:evenodd;stroke-linecap:round;stroke-linejoin:round;" version="1.1" viewBox="0 0 170 45" width="100%" xml:space="preserve" xmlns="http://www.w3.org/2000/svg" xmlns:xlink="http://www.w3.org/1999/xlink">
<defs>
<radialGradient cx="148.911" cy="23.6344" gradientTransform="matrix(1 0 0 1 -2.93057 -5.20557)" gradientUnits="userSpaceOnUse" id="RadialGradient" r="26.8467">
<stop offset="0" stop-color="#872f95"/>
<stop offset="1" stop-color="#a54848"/>
</radialGradient>
</defs>
<g id="Layer-1">
<g opacity="1">
<g fill="#ffffff" opacity="1" stroke="none">
<path d="M17.6248 26.2188C17.6248 24.1354 17.3071 22.5547 16.6717 21.4766C16.0363 20.3984 15.0154 19.8594 13.6092 19.8594C12.8071 19.8594 11.9972 20.0469 11.1795 20.4219C10.3618 20.7969 9.61959 21.2708 8.95292 21.8438L8.95292 31.8438C9.6925 32.2083 10.3488 32.4661 10.9217 32.6172C11.4946 32.7682 12.1248 32.8438 12.8123 32.8438C14.3123 32.8438 15.4894 32.3125 16.3435 31.25C17.1977 30.1875 17.6248 28.5104 17.6248 26.2188ZM20.656 25.9844C20.656 28.8385 19.9633 31.1354 18.5779 32.875C17.1925 34.6146 15.4581 35.4844 13.3748 35.4844C12.4269 35.4844 11.617 35.3672 10.9451 35.1328C10.2732 34.8984 9.60917 34.5833 8.95292 34.1875L8.76542 35L6.01542 35L6.01542 10.6875L8.95292 10.6875L8.95292 19.375C9.6925 18.7083 10.4946 18.1563 11.3592 17.7188C12.2238 17.2812 13.2029 17.0625 14.2967 17.0625C16.2654 17.0625 17.8175 17.8516 18.9529 19.4297C20.0883 21.0078 20.656 23.1927 20.656 25.9844Z"/>
<path d="M33.7529 30.7031L33.7529 25.8594C33.055 25.9219 32.1722 26.0078 31.1045 26.1172C30.0368 26.2266 29.1748 26.3802 28.5185 26.5781C27.7373 26.8177 27.0915 27.1849 26.581 27.6797C26.0706 28.1745 25.8154 28.8646 25.8154 29.75C25.8154 30.75 26.0967 31.5052 26.6592 32.0156C27.2217 32.526 28.0446 32.7812 29.1279 32.7812C30.055 32.7812 30.8935 32.5807 31.6435 32.1797C32.3935 31.7786 33.0967 31.2865 33.7529 30.7031ZM33.7529 33.1406C33.5133 33.3177 33.193 33.5651 32.792 33.8828C32.3909 34.2005 32.0029 34.4531 31.6279 34.6406C31.1071 34.9115 30.6045 35.1198 30.1201 35.2656C29.6357 35.4115 28.956 35.4844 28.081 35.4844C27.3623 35.4844 26.68 35.349 26.0342 35.0781C25.3883 34.8073 24.8206 34.4271 24.331 33.9375C23.8623 33.4583 23.4873 32.8672 23.206 32.1641C22.9248 31.4609 22.7842 30.7188 22.7842 29.9375C22.7842 28.7292 23.0394 27.7005 23.5498 26.8516C24.0602 26.0026 24.8675 25.3281 25.9717 24.8281C26.9508 24.3802 28.1071 24.0703 29.4404 23.8984C30.7738 23.7266 32.2113 23.599 33.7529 23.5156L33.7529 22.9531C33.7529 22.2656 33.6488 21.7109 33.4404 21.2891C33.2321 20.8672 32.9404 20.5417 32.5654 20.3125C32.1904 20.0729 31.7321 19.9141 31.1904 19.8359C30.6488 19.7578 30.0915 19.7188 29.5185 19.7188C28.8415 19.7188 28.0446 19.8203 27.1279 20.0234C26.2113 20.2266 25.2946 20.5208 24.3779 20.9062L24.206 20.9062L24.206 17.9219C24.7477 17.7656 25.5238 17.5938 26.5342 17.4062C27.5446 17.2187 28.5446 17.125 29.5342 17.125C30.7321 17.125 31.7425 17.2187 32.5654 17.4062C33.3883 17.5938 34.1279 17.9323 34.7842 18.4219C35.4196 18.901 35.8935 19.5208 36.206 20.2812C36.5185 21.0417 36.6748 21.9687 36.6748 23.0625L36.6748 35L33.7529 35L33.7529 33.1406Z"/>
<path d="M48.0373 35.3906C46.8394 35.3906 45.7404 35.2057 44.7404 34.8359C43.7404 34.4661 42.881 33.9063 42.1623 33.1562C41.4435 32.4062 40.8863 31.4609 40.4904 30.3203C40.0946 29.1797 39.8967 27.8385 39.8967 26.2969C39.8967 24.7656 40.1024 23.4427 40.5139 22.3281C40.9253 21.2135 41.4748 20.276 42.1623 19.5156C42.8498 18.7552 43.7066 18.1693 44.7326 17.7578C45.7586 17.3464 46.8602 17.1406 48.0373 17.1406C48.9956 17.1406 49.9201 17.276 50.8107 17.5469C51.7014 17.8177 52.4956 18.1302 53.1935 18.4844L53.1935 21.7812L53.0217 21.7812C52.8133 21.6042 52.5451 21.401 52.217 21.1719C51.8889 20.9427 51.4904 20.7083 51.0217 20.4688C50.6154 20.2604 50.1363 20.0781 49.5842 19.9219C49.0321 19.7656 48.5008 19.6875 47.9904 19.6875C46.4696 19.6875 45.2482 20.263 44.3264 21.4141C43.4045 22.5651 42.9435 24.1927 42.9435 26.2969C42.9435 28.3594 43.3889 29.9661 44.2795 31.1172C45.1701 32.2682 46.4071 32.8438 47.9904 32.8438C48.9488 32.8438 49.8602 32.6458 50.7248 32.25C51.5894 31.8542 52.355 31.3438 53.0217 30.7188L53.1935 30.7188L53.1935 34.0156C52.9019 34.151 52.5373 34.3151 52.0998 34.5078C51.6623 34.7005 51.2665 34.8437 50.9123 34.9375C50.4123 35.0833 49.9644 35.1953 49.5685 35.2734C49.1727 35.3516 48.6623 35.3906 48.0373 35.3906Z"/>
<path d="M70.6342 35L66.7748 35L60.2592 26.5781L59.1029 27.7031L59.1029 35L56.1654 35L56.1654 10.6875L59.1029 10.6875L59.1029 24.9219L66.0092 17.5469L69.6654 17.5469L62.4935 24.8438L70.6342 35Z"/>
<path d="M77.1217 35.4219C75.955 35.4219 74.8639 35.2656 73.8482 34.9531C72.8326 34.6406 71.9915 34.3073 71.3248 33.9531L71.3248 30.6562L71.481 30.6562C71.731 30.8542 72.0253 31.0729 72.3639 31.3125C72.7024 31.5521 73.1529 31.8021 73.7154 32.0625C74.2154 32.2917 74.7649 32.4948 75.3639 32.6719C75.9628 32.849 76.5852 32.9375 77.231 32.9375C77.6998 32.9375 78.1998 32.8828 78.731 32.7734C79.2623 32.6641 79.6581 32.526 79.9185 32.3594C80.2831 32.1198 80.5461 31.8646 80.7076 31.5938C80.8691 31.3229 80.9498 30.9167 80.9498 30.375C80.9498 29.6771 80.7597 29.151 80.3795 28.7969C79.9993 28.4427 79.3248 28.1458 78.356 27.9062C77.981 27.8125 77.4915 27.7031 76.8873 27.5781C76.2831 27.4531 75.7258 27.3177 75.2154 27.1719C73.8821 26.7865 72.9133 26.1901 72.3092 25.3828C71.705 24.5755 71.4029 23.599 71.4029 22.4531C71.4029 20.8802 71.9967 19.599 73.1842 18.6094C74.3717 17.6198 75.9498 17.125 77.9185 17.125C78.8873 17.125 79.8613 17.2448 80.8404 17.4844C81.8196 17.724 82.6425 18.026 83.3092 18.3906L83.3092 21.5312L83.1529 21.5312C82.4029 20.9375 81.567 20.4688 80.6451 20.125C79.7232 19.7812 78.7935 19.6094 77.856 19.6094C76.8873 19.6094 76.0696 19.8125 75.4029 20.2188C74.7363 20.625 74.4029 21.2396 74.4029 22.0625C74.4029 22.7917 74.6008 23.3359 74.9967 23.6953C75.3925 24.0547 76.0279 24.349 76.9029 24.5781C77.3404 24.6927 77.8274 24.8047 78.3639 24.9141C78.9003 25.0234 79.4654 25.151 80.0592 25.2969C81.3508 25.6198 82.3222 26.1562 82.9732 26.9062C83.6243 27.6563 83.9498 28.6771 83.9498 29.9688C83.9498 30.7188 83.8014 31.4297 83.5045 32.1016C83.2076 32.7734 82.7727 33.349 82.1998 33.8281C81.5748 34.349 80.8691 34.7448 80.0826 35.0156C79.2961 35.2865 78.3092 35.4219 77.1217 35.4219Z"/>
<path d="M92.2654 35.3438C90.6613 35.3438 89.4113 34.888 88.5154 33.9766C87.6196 33.0651 87.1717 31.625 87.1717 29.6562L87.1717 19.9844L85.1873 19.9844L85.1873 17.5469L87.1717 17.5469L87.1717 12.5312L90.1092 12.5312L90.1092 17.5469L95.5154 17.5469L95.5154 19.9844L90.1092 19.9844L90.1092 28.2812C90.1092 29.1667 90.1248 29.849 90.156 30.3281C90.1873 30.8073 90.3071 31.2552 90.5154 31.6719C90.6925 32.0365 90.979 32.3099 91.3748 32.4922C91.7706 32.6745 92.3071 32.7656 92.9842 32.7656C93.4633 32.7656 93.9269 32.6953 94.3748 32.5547C94.8227 32.4141 95.1456 32.2969 95.3435 32.2031L95.5154 32.2031L95.5154 34.8438C94.9633 35 94.4034 35.1224 93.8357 35.2109C93.268 35.2995 92.7446 35.3438 92.2654 35.3438Z"/>
<path d="M112.347 26.2812C112.347 29.2188 111.638 31.487 110.222 33.0859C108.805 34.6849 106.92 35.4844 104.565 35.4844C102.138 35.4844 100.229 34.6589 98.8389 33.0078C97.4482 31.3568 96.7529 29.1146 96.7529 26.2812C96.7529 23.3646 97.4691 21.099 98.9014 19.4844C100.334 17.8698 102.222 17.0625 104.565 17.0625C106.92 17.0625 108.805 17.8672 110.222 19.4766C111.638 21.0859 112.347 23.3542 112.347 26.2812ZM109.315 26.2812C109.315 24.0208 108.904 22.3411 108.081 21.2422C107.258 20.1432 106.086 19.5938 104.565 19.5938C103.034 19.5938 101.854 20.1432 101.026 21.2422C100.198 22.3411 99.7842 24.0208 99.7842 26.2812C99.7842 28.4688 100.198 30.1276 101.026 31.2578C101.854 32.388 103.034 32.9531 104.565 32.9531C106.076 32.9531 107.245 32.3984 108.073 31.2891C108.901 30.1797 109.315 28.5104 109.315 26.2812Z"/>
<path d="M124.912 20.7031L124.756 20.7031C124.537 20.6406 124.306 20.6016 124.061 20.5859C123.816 20.5703 123.522 20.5625 123.178 20.5625C122.386 20.5625 121.6 20.7344 120.819 21.0781C120.037 21.4219 119.298 21.9323 118.6 22.6094L118.6 35L115.662 35L115.662 17.5469L118.6 17.5469L118.6 20.1406C119.673 19.1927 120.608 18.5234 121.404 18.1328C122.201 17.7422 122.975 17.5469 123.725 17.5469C124.027 17.5469 124.253 17.5547 124.404 17.5703C124.556 17.5859 124.725 17.6094 124.912 17.6406L124.912 20.7031Z"/>
<path d="M141.212 17.5469L131.822 41.4375L128.681 41.4375L131.806 34.1562L125.462 17.5469L128.634 17.5469L133.4 30.4688L138.15 17.5469L141.212 17.5469Z"/>
</g>
<g fill="url(#RadialGradient)" opacity="1" stroke="none">
<path d="M153.875 30.7031L153.875 25.8594C153.177 25.9219 152.294 26.0078 151.227 26.1172C150.159 26.2266 149.297 26.3802 148.641 26.5781C147.86 26.8177 147.214 27.1849 146.703 27.6797C146.193 28.1745 145.938 28.8646 145.938 29.75C145.938 30.75 146.219 31.5052 146.781 32.0156C147.344 32.526 148.167 32.7812 149.25 32.7812C150.177 32.7812 151.016 32.5807 151.766 32.1797C152.516 31.7786 153.219 31.2865 153.875 30.7031ZM153.875 33.1406C153.636 33.3177 153.315 33.5651 152.914 33.8828C152.513 34.2005 152.125 34.4531 151.75 34.6406C151.229 34.9115 150.727 35.1198 150.242 35.2656C149.758 35.4115 149.078 35.4844 148.203 35.4844C147.485 35.4844 146.802 35.349 146.156 35.0781C145.511 34.8073 144.943 34.4271 144.453 33.9375C143.985 33.4583 143.61 32.8672 143.328 32.1641C143.047 31.4609 142.906 30.7188 142.906 29.9375C142.906 28.7292 143.162 27.7005 143.672 26.8516C144.182 26.0026 144.99 25.3281 146.094 24.8281C147.073 24.3802 148.229 24.0703 149.563 23.8984C150.896 23.7266 152.334 23.599 153.875 23.5156L153.875 22.9531C153.875 22.2656 153.771 21.7109 153.563 21.2891C153.354 20.8672 153.063 20.5417 152.688 20.3125C152.313 20.0729 151.854 19.9141 151.313 19.8359C150.771 19.7578 150.214 19.7188 149.641 19.7188C148.964 19.7188 148.167 19.8203 147.25 20.0234C146.334 20.2266 145.417 20.5208 144.5 20.9062L144.328 20.9062L144.328 17.9219C144.87 17.7656 145.646 17.5938 146.656 17.4062C147.667 17.2187 148.667 17.125 149.656 17.125C150.854 17.125 151.865 17.2187 152.688 17.4062C153.511 17.5938 154.25 17.9323 154.906 18.4219C155.542 18.901 156.016 19.5208 156.328 20.2812C156.641 21.0417 156.797 21.9687 156.797 23.0625L156.797 35L153.875 35L153.875 33.1406Z"/>
<path d="M163.922 35L160.985 35L160.985 17.5469L163.922 17.5469L163.922 35ZM164.125 14.625L160.781 14.625L160.781 11.5781L164.125 11.5781L164.125 14.625Z"/>
</g>
</g>
</g>
</svg>
