<?xml version="1.0" encoding="UTF-8" standalone="no"?>
<!DOCTYPE svg PUBLIC "-//W3C//DTD SVG 1.1//EN" "http://www.w3.org/Graphics/SVG/1.1/DTD/svg11.dtd">
<!-- Created with Vectornator (http://vectornator.io/) -->
<svg height="100%" stroke-miterlimit="10" style="fill-rule:nonzero;clip-rule:evenodd;stroke-linecap:round;stroke-linejoin:round;" version="1.1" viewBox="0 0 160 32" width="100%" xml:space="preserve" xmlns="http://www.w3.org/2000/svg" xmlns:xlink="http://www.w3.org/1999/xlink">
<defs>
<radialGradient cx="148.911" cy="23.6344" gradientTransform="matrix(1 0 0 1 -8.43057 -15.2056)" gradientUnits="userSpaceOnUse" id="RadialGradient" r="26.8467">
<stop offset="0" stop-color="#872f95"/>
<stop offset="1" stop-color="#a54848"/>
</radialGradient>
</defs>
<clipPath id="ArtboardFrame">
<rect height="32" width="160" x="0" y="0"/>
</clipPath>
<g clip-path="url(#ArtboardFrame)" id="background">
<path d="M-0.789601-0.367177L160.21-0.367177L160.21 32.6328L-0.789601 32.6328L-0.789601-0.367177Z" fill="#170819" fill-rule="nonzero" opacity="1" stroke="none"/>
</g>
<g id="Layer-1">
<g opacity="1">
<g fill="#ffffff" opacity="1" stroke="none">
<path d="M12.1248 16.2188C12.1248 14.1354 11.8071 12.5547 11.1717 11.4766C10.5363 10.3984 9.51542 9.85938 8.10917 9.85938C7.30709 9.85938 6.49719 10.0469 5.67948 10.4219C4.86177 10.7969 4.11959 11.2708 3.45292 11.8438L3.45292 21.8438C4.1925 22.2083 4.84875 22.4661 5.42167 22.6172C5.99459 22.7682 6.6248 22.8438 7.3123 22.8438C8.8123 22.8438 9.98938 22.3125 10.8435 21.25C11.6977 20.1875 12.1248 18.5104 12.1248 16.2188ZM15.156 15.9844C15.156 18.8385 14.4633 21.1354 13.0779 22.875C11.6925 24.6146 9.95813 25.4844 7.8748 25.4844C6.92688 25.4844 6.11698 25.3672 5.44511 25.1328C4.77323 24.8984 4.10917 24.5833 3.45292 24.1875L3.26542 25L0.515421 25L0.515421 0.6875L3.45292 0.6875L3.45292 9.375C4.1925 8.70833 4.99459 8.15625 5.85917 7.71875C6.72375 7.28125 7.70292 7.0625 8.79667 7.0625C10.7654 7.0625 12.3175 7.85156 13.4529 9.42969C14.5883 11.0078 15.156 13.1927 15.156 15.9844Z"/>
<path d="M28.2529 20.7031L28.2529 15.8594C27.555 15.9219 26.6722 16.0078 25.6045 16.1172C24.5368 16.2266 23.6748 16.3802 23.0185 16.5781C22.2373 16.8177 21.5915 17.1849 21.081 17.6797C20.5706 18.1745 20.3154 18.8646 20.3154 19.75C20.3154 20.75 20.5967 21.5052 21.1592 22.0156C21.7217 22.526 22.5446 22.7812 23.6279 22.7812C24.555 22.7812 25.3935 22.5807 26.1435 22.1797C26.8935 21.7786 27.5967 21.2865 28.2529 20.7031ZM28.2529 23.1406C28.0133 23.3177 27.693 23.5651 27.292 23.8828C26.8909 24.2005 26.5029 24.4531 26.1279 24.6406C25.6071 24.9115 25.1045 25.1198 24.6201 25.2656C24.1357 25.4115 23.456 25.4844 22.581 25.4844C21.8623 25.4844 21.18 25.349 20.5342 25.0781C19.8883 24.8073 19.3206 24.4271 18.831 23.9375C18.3623 23.4583 17.9873 22.8672 17.706 22.1641C17.4248 21.4609 17.2842 20.7188 17.2842 19.9375C17.2842 18.7292 17.5394 17.7005 18.0498 16.8516C18.5602 16.0026 19.3675 15.3281 20.4717 14.8281C21.4508 14.3802 22.6071 14.0703 23.9404 13.8984C25.2738 13.7266 26.7113 13.599 28.2529 13.5156L28.2529 12.9531C28.2529 12.2656 28.1488 11.7109 27.9404 11.2891C27.7321 10.8672 27.4404 10.5417 27.0654 10.3125C26.6904 10.0729 26.2321 9.91406 25.6904 9.83594C25.1488 9.75781 24.5915 9.71875 24.0185 9.71875C23.3415 9.71875 22.5446 9.82031 21.6279 10.0234C20.7113 10.2266 19.7946 10.5208 18.8779 10.9062L18.706 10.9062L18.706 7.92188C19.2477 7.76562 20.0238 7.59375 21.0342 7.40625C22.0446 7.21875 23.0446 7.125 24.0342 7.125C25.2321 7.125 26.2425 7.21875 27.0654 7.40625C27.8883 7.59375 28.6279 7.93229 29.2842 8.42188C29.9196 8.90104 30.3935 9.52083 30.706 10.2812C31.0185 11.0417 31.1748 11.9687 31.1748 13.0625L31.1748 25L28.2529 25L28.2529 23.1406Z"/>
<path d="M42.5373 25.3906C41.3394 25.3906 40.2404 25.2057 39.2404 24.8359C38.2404 24.4661 37.381 23.9063 36.6623 23.1562C35.9435 22.4062 35.3863 21.4609 34.9904 20.3203C34.5946 19.1797 34.3967 17.8385 34.3967 16.2969C34.3967 14.7656 34.6024 13.4427 35.0139 12.3281C35.4253 11.2135 35.9748 10.276 36.6623 9.51562C37.3498 8.75521 38.2066 8.16927 39.2326 7.75781C40.2586 7.34635 41.3602 7.14062 42.5373 7.14062C43.4956 7.14062 44.4201 7.27604 45.3107 7.54688C46.2014 7.81771 46.9956 8.13021 47.6935 8.48438L47.6935 11.7812L47.5217 11.7812C47.3133 11.6042 47.0451 11.401 46.717 11.1719C46.3889 10.9427 45.9904 10.7083 45.5217 10.4688C45.1154 10.2604 44.6363 10.0781 44.0842 9.92188C43.5321 9.76562 43.0008 9.6875 42.4904 9.6875C40.9696 9.6875 39.7482 10.263 38.8264 11.4141C37.9045 12.5651 37.4435 14.1927 37.4435 16.2969C37.4435 18.3594 37.8889 19.9661 38.7795 21.1172C39.6701 22.2682 40.9071 22.8438 42.4904 22.8438C43.4488 22.8438 44.3602 22.6458 45.2248 22.25C46.0894 21.8542 46.855 21.3438 47.5217 20.7188L47.6935 20.7188L47.6935 24.0156C47.4019 24.151 47.0373 24.3151 46.5998 24.5078C46.1623 24.7005 45.7665 24.8437 45.4123 24.9375C44.9123 25.0833 44.4644 25.1953 44.0685 25.2734C43.6727 25.3516 43.1623 25.3906 42.5373 25.3906Z"/>
<path d="M65.1342 25L61.2748 25L54.7592 16.5781L53.6029 17.7031L53.6029 25L50.6654 25L50.6654 0.6875L53.6029 0.6875L53.6029 14.9219L60.5092 7.54688L64.1654 7.54688L56.9935 14.8438L65.1342 25Z"/>
<path d="M71.6217 25.4219C70.455 25.4219 69.3639 25.2656 68.3482 24.9531C67.3326 24.6406 66.4915 24.3073 65.8248 23.9531L65.8248 20.6562L65.981 20.6562C66.231 20.8542 66.5253 21.0729 66.8639 21.3125C67.2024 21.5521 67.6529 21.8021 68.2154 22.0625C68.7154 22.2917 69.2649 22.4948 69.8639 22.6719C70.4628 22.849 71.0852 22.9375 71.731 22.9375C72.1998 22.9375 72.6998 22.8828 73.231 22.7734C73.7623 22.6641 74.1581 22.526 74.4185 22.3594C74.7831 22.1198 75.0461 21.8646 75.2076 21.5938C75.3691 21.3229 75.4498 20.9167 75.4498 20.375C75.4498 19.6771 75.2597 19.151 74.8795 18.7969C74.4993 18.4427 73.8248 18.1458 72.856 17.9062C72.481 17.8125 71.9915 17.7031 71.3873 17.5781C70.7831 17.4531 70.2258 17.3177 69.7154 17.1719C68.3821 16.7865 67.4133 16.1901 66.8092 15.3828C66.205 14.5755 65.9029 13.599 65.9029 12.4531C65.9029 10.8802 66.4967 9.59896 67.6842 8.60938C68.8717 7.61979 70.4498 7.125 72.4185 7.125C73.3873 7.125 74.3613 7.24479 75.3404 7.48438C76.3196 7.72396 77.1425 8.02604 77.8092 8.39062L77.8092 11.5312L77.6529 11.5312C76.9029 10.9375 76.067 10.4688 75.1451 10.125C74.2232 9.78125 73.2935 9.60938 72.356 9.60938C71.3873 9.60938 70.5696 9.8125 69.9029 10.2188C69.2363 10.625 68.9029 11.2396 68.9029 12.0625C68.9029 12.7917 69.1008 13.3359 69.4967 13.6953C69.8925 14.0547 70.5279 14.349 71.4029 14.5781C71.8404 14.6927 72.3274 14.8047 72.8639 14.9141C73.4003 15.0234 73.9654 15.151 74.5592 15.2969C75.8508 15.6198 76.8222 16.1562 77.4732 16.9062C78.1243 17.6563 78.4498 18.6771 78.4498 19.9688C78.4498 20.7188 78.3014 21.4297 78.0045 22.1016C77.7076 22.7734 77.2727 23.349 76.6998 23.8281C76.0748 24.349 75.3691 24.7448 74.5826 25.0156C73.7961 25.2865 72.8092 25.4219 71.6217 25.4219Z"/>
<path d="M86.7654 25.3438C85.1613 25.3438 83.9113 24.888 83.0154 23.9766C82.1196 23.0651 81.6717 21.625 81.6717 19.6562L81.6717 9.98438L79.6873 9.98438L79.6873 7.54688L81.6717 7.54688L81.6717 2.53125L84.6092 2.53125L84.6092 7.54688L90.0154 7.54688L90.0154 9.98438L84.6092 9.98438L84.6092 18.2812C84.6092 19.1667 84.6248 19.849 84.656 20.3281C84.6873 20.8073 84.8071 21.2552 85.0154 21.6719C85.1925 22.0365 85.479 22.3099 85.8748 22.4922C86.2706 22.6745 86.8071 22.7656 87.4842 22.7656C87.9633 22.7656 88.4269 22.6953 88.8748 22.5547C89.3227 22.4141 89.6456 22.2969 89.8435 22.2031L90.0154 22.2031L90.0154 24.8438C89.4633 25 88.9034 25.1224 88.3357 25.2109C87.768 25.2995 87.2446 25.3438 86.7654 25.3438Z"/>
<path d="M106.847 16.2812C106.847 19.2188 106.138 21.487 104.722 23.0859C103.305 24.6849 101.42 25.4844 99.0654 25.4844C96.6383 25.4844 94.7295 24.6589 93.3389 23.0078C91.9482 21.3568 91.2529 19.1146 91.2529 16.2812C91.2529 13.3646 91.9691 11.099 93.4014 9.48438C94.8336 7.86979 96.7217 7.0625 99.0654 7.0625C101.42 7.0625 103.305 7.86719 104.722 9.47656C106.138 11.0859 106.847 13.3542 106.847 16.2812ZM103.815 16.2812C103.815 14.0208 103.404 12.3411 102.581 11.2422C101.758 10.1432 100.586 9.59375 99.0654 9.59375C97.5342 9.59375 96.3545 10.1432 95.5264 11.2422C94.6982 12.3411 94.2842 14.0208 94.2842 16.2812C94.2842 18.4688 94.6982 20.1276 95.5264 21.2578C96.3545 22.388 97.5342 22.9531 99.0654 22.9531C100.576 22.9531 101.745 22.3984 102.573 21.2891C103.401 20.1797 103.815 18.5104 103.815 16.2812Z"/>
<path d="M119.412 10.7031L119.256 10.7031C119.037 10.6406 118.806 10.6016 118.561 10.5859C118.316 10.5703 118.022 10.5625 117.678 10.5625C116.886 10.5625 116.1 10.7344 115.319 11.0781C114.537 11.4219 113.798 11.9323 113.1 12.6094L113.1 25L110.162 25L110.162 7.54688L113.1 7.54688L113.1 10.1406C114.173 9.19271 115.108 8.52344 115.904 8.13281C116.701 7.74219 117.475 7.54688 118.225 7.54688C118.527 7.54688 118.753 7.55469 118.904 7.57031C119.056 7.58594 119.225 7.60937 119.412 7.64062L119.412 10.7031Z"/>
<path d="M135.712 7.54688L126.322 31.4375L123.181 31.4375L126.306 24.1562L119.962 7.54688L123.134 7.54688L127.9 20.4688L132.65 7.54688L135.712 7.54688Z"/>
</g>
<g fill="url(#RadialGradient)" opacity="1" stroke="none">
<path d="M148.375 20.7031L148.375 15.8594C147.677 15.9219 146.794 16.0078 145.727 16.1172C144.659 16.2266 143.797 16.3802 143.141 16.5781C142.36 16.8177 141.714 17.1849 141.203 17.6797C140.693 18.1745 140.438 18.8646 140.438 19.75C140.438 20.75 140.719 21.5052 141.281 22.0156C141.844 22.526 142.667 22.7812 143.75 22.7812C144.677 22.7812 145.516 22.5807 146.266 22.1797C147.016 21.7786 147.719 21.2865 148.375 20.7031ZM148.375 23.1406C148.136 23.3177 147.815 23.5651 147.414 23.8828C147.013 24.2005 146.625 24.4531 146.25 24.6406C145.729 24.9115 145.227 25.1198 144.742 25.2656C144.258 25.4115 143.578 25.4844 142.703 25.4844C141.985 25.4844 141.302 25.349 140.656 25.0781C140.011 24.8073 139.443 24.4271 138.953 23.9375C138.485 23.4583 138.11 22.8672 137.828 22.1641C137.547 21.4609 137.406 20.7188 137.406 19.9375C137.406 18.7292 137.662 17.7005 138.172 16.8516C138.682 16.0026 139.49 15.3281 140.594 14.8281C141.573 14.3802 142.729 14.0703 144.063 13.8984C145.396 13.7266 146.834 13.599 148.375 13.5156L148.375 12.9531C148.375 12.2656 148.271 11.7109 148.063 11.2891C147.854 10.8672 147.563 10.5417 147.188 10.3125C146.813 10.0729 146.354 9.91406 145.813 9.83594C145.271 9.75781 144.714 9.71875 144.141 9.71875C143.464 9.71875 142.667 9.82031 141.75 10.0234C140.834 10.2266 139.917 10.5208 139 10.9062L138.828 10.9062L138.828 7.92188C139.37 7.76562 140.146 7.59375 141.156 7.40625C142.167 7.21875 143.167 7.125 144.156 7.125C145.354 7.125 146.365 7.21875 147.188 7.40625C148.011 7.59375 148.75 7.93229 149.406 8.42188C150.042 8.90104 150.516 9.52083 150.828 10.2812C151.141 11.0417 151.297 11.9687 151.297 13.0625L151.297 25L148.375 25L148.375 23.1406Z"/>
<path d="M158.422 25L155.485 25L155.485 7.54688L158.422 7.54688L158.422 25ZM158.625 4.625L155.281 4.625L155.281 1.57812L158.625 1.57812L158.625 4.625Z"/>
</g>
</g>
</g>
</svg>
